# xmcd
#
# Track frame offsets: 
#        225
#        15516
#        28739
#        49857
#        65175
#        81138
#        98914
#        120006
#        141966
#        156544
#        183107
#        199492
#        212221
#
# Disc length: 3075 seconds
#
# Revision: 2
# Processed by: cddbd v1.5.1PL2 Copyright (c) Steve Scherf et al.
# Submitted via: ExactAudioCopy v0.95b2
#
DISCID=b90c000d
DTITLE=R.L. Burnside - Sound Machine Groove
DYEAR=1997
DGENRE=Delta Blues
TTITLE0=Shake, Little Baby
TTITLE1=Rollin' and Tumblin'
TTITLE2=Bad Luck City
TTITLE3=Goin' Down South
TTITLE4=Sound Machine Groove
TTITLE5=Sitting on Top of the World
TTITLE6=Begged for a Nickel
TTITLE7=Can't Let You Go
TTITLE8=Jumper Hanging Out on the Line
TTITLE9=Searching for My Baby
TTITLE10=Long Haired Doney
TTITLE11=Pretty Woman
TTITLE12=Goin' Away Baby
EXTD=YEAR: 1997 ID3G:   0
EXTT0=
EXTT1=
EXTT2=
EXTT3=
EXTT4=
EXTT5=
EXTT6=
EXTT7=
EXTT8=
EXTT9=
EXTT10=
EXTT11=
EXTT12=
PLAYORDER=
